<?xml version="1.0" standalone="yes"?>
<svg xmlns="http://www.w3.org/2000/svg" width="672" height="371">
<path style="fill:#010101; stroke:none;" d="M0 0L0 371L672 371L672 0L0 0z"/>
<path style="fill:#e7e7ed; stroke:none;" d="M302 74.4244C290.963 75.8735 280.671 76.1759 270 80.054C234.956 92.7898 209.72 124.143 204.428 161C202.108 177.161 207.878 191.571 207.167 207C206.9 212.799 198.949 218.562 196.515 224C189.371 239.961 192.726 261.433 207.001 272.471C216.615 279.905 230.165 281.141 241 275.724C245.356 273.546 250.942 266.43 256.015 267.58C267.967 270.29 278.416 276.769 291 278.572C316.674 282.25 345.052 279 371 279C400.37 279 431.951 282.25 461 277.866C541.63 265.698 572.443 154.948 511.996 101.286C473.019 66.6842 421.373 74 373 74C349.845 74 324.952 71.4109 302 74.4244z"/>
<path style="fill:#e1e3e9; stroke:none;" d="M236 102L237 103L236 102M291 154L291 155L302 153L291 154z"/>
<path style="fill:#b8b6ba; stroke:none;" d="M298 153L298 154L303 154L298 153z"/>
<path style="fill:#e1e3e9; stroke:none;" d="M303 153L303 154L310 155L303 153M364 154L364 155L382 155C377.129 151.672 369.514 152.687 364 154M438 154L438 155L456 155C451.388 151.506 443.389 152.717 438 154z"/>
<path style="fill:#b8b6ba; stroke:none;" d="M293.667 154.333L294.333 154.667L293.667 154.333z"/>
<path style="fill:#9f9fa2; stroke:none;" d="M295 154.529C264.729 161.476 275.574 208.341 306 201.319C336.24 194.341 324.957 147.655 295 154.529z"/>
<path style="fill:#b8b6ba; stroke:none;" d="M305 154L305 155L308 155L305 154M366 154.532C335.369 161.83 349.291 208.569 380 201.471C410.948 194.317 396.686 147.222 366 154.532M441 154.468C424.581 157.625 417.857 178.665 426.853 191.996C432.743 200.723 442.999 203.429 453 201.671C484.599 196.118 472.192 148.471 441 154.468z"/>
<path style="fill:#e1e3e9; stroke:none;" d="M289 155L290 156L289 155z"/>
<path style="fill:#b8b6ba; stroke:none;" d="M290.667 155.333L291.333 155.667L290.667 155.333M308 155L308 156L316 159L316 158L308 155z"/>
<path style="fill:#e1e3e9; stroke:none;" d="M311 155L312 156L311 155M362 155L363 156L362 155M383.667 155.333L384.333 155.667L383.667 155.333M436 155L437 156L436 155M457.667 155.333L458.333 155.667L457.667 155.333M206 156L207 157L206 156M287 156L280 163L288 157L287 156z"/>
<path style="fill:#b8b6ba; stroke:none;" d="M288.667 156.333L289.333 156.667L288.667 156.333z"/>
<path style="fill:#e1e3e9; stroke:none;" d="M313 156L314 157L313 156M358 158L361 156L358 158M385 156L388 158L385 156M434 156L435 157L434 156M459 156L462 158L459 156z"/>
<path style="fill:#b8b6ba; stroke:none;" d="M287 157L288 158L287 157z"/>
<path style="fill:#e1e3e9; stroke:none;" d="M314.667 157.333L315.333 157.667L314.667 157.333M432.667 157.333L433.333 157.667L432.667 157.333z"/>
<path style="fill:#b8b6ba; stroke:none;" d="M285 158L286 159L285 158z"/>
<path style="fill:#e1e3e9; stroke:none;" d="M357 158L358 159L357 158M388 158L389 159L388 158M431 158L432 159L431 158M462 158L463 159L462 158z"/>
<path style="fill:#b8b6ba; stroke:none;" d="M284 159L285 160L284 159M316 159L322 166L316 159z"/>
<path style="fill:#e1e3e9; stroke:none;" d="M317 159L318 160L317 159M356 159L357 160L356 159M389 159L390 160L389 159M430 159L431 160L430 159M463 159L466 162L463 159z"/>
<path style="fill:#b8b6ba; stroke:none;" d="M283 160L284 161L283 160z"/>
<path style="fill:#e1e3e9; stroke:none;" d="M318 160L319 161L318 160M355 160L356 161L355 160M390 160L391 161L390 160M429 160L430 161L429 160z"/>
<path style="fill:#b8b6ba; stroke:none;" d="M282 161L283 162L282 161z"/>
<path style="fill:#e1e3e9; stroke:none;" d="M319 161L320 162L319 161M354 161L355 162L354 161M391 161L392 162L391 161M428 161L429 162L428 161z"/>
<path style="fill:#b8b6ba; stroke:none;" d="M281 162L282 163L281 162z"/>
<path style="fill:#e1e3e9; stroke:none;" d="M353 162L354 163L353 162M392 162L393 163L392 162M427 162L428 163L427 162M466 162L467 163L466 162z"/>
<path style="fill:#b8b6ba; stroke:none;" d="M280 163C274.812 173.154 274.944 181.469 279 192L280 192L277.013 175L280 163z"/>
<path style="fill:#e1e3e9; stroke:none;" d="M320 163L321 164L320 163M352.333 163.667L352.667 164.333L352.333 163.667M393 163L395 166L393 163M426.333 163.667L426.667 164.333L426.333 163.667M467 163L468 164L467 163M279 164L280 165L279 164M321 164L322 165L321 164M468.333 164.667L468.667 165.333L468.333 164.667M278 165L279 166L278 165M322 165L323 169L324 169L322 165M351 165L352 166L351 165M425 165L426 166L425 165M350.333 166.667L350.667 167.333L350.333 166.667M395.333 166.667L395.667 167.333L395.333 166.667M424 166L423 172L424 172L424 166M469.333 166.667L469.667 167.333L469.333 166.667M277 167L278 168L277 167z"/>
<path style="fill:#b8b6ba; stroke:none;" d="M322.333 167.667L322.667 168.333L322.333 167.667z"/>
<path style="fill:#e1e3e9; stroke:none;" d="M349 168L349 171L350 171L349 168M396 168L398 180L399 180L396 168M470.333 168.667L470.667 169.333L470.333 168.667M276.333 169.667L276.667 170.333L276.333 169.667z"/>
<path style="fill:#b8b6ba; stroke:none;" d="M323 169L324 177L325 177L323 169z"/>
<path style="fill:#e1e3e9; stroke:none;" d="M324.333 170.667L324.667 171.333L324.333 170.667M471 170L471 186L472 186L471 170M348 171L349 188L350 188L348 171M422 172L424 190L425 190L422 172M275 173L275 177L276 177L275 173M325 173L324 186L325 186L325 173M274.333 177.667L274.667 178.333L274.333 177.667M275 179L275 183L276 183L275 179z"/>
<path style="fill:#b8b6ba; stroke:none;" d="M324 180L324 184L325 184L324 180z"/>
<path style="fill:#e1e3e9; stroke:none;" d="M397 180L396 188L397 188L397 180z"/>
<path style="fill:#b8b6ba; stroke:none;" d="M323 184L322 189L323 189L323 184z"/>
<path style="fill:#e1e3e9; stroke:none;" d="M276.333 185.667L276.667 186.333L276.333 185.667M470.333 186.667L470.667 187.333L470.333 186.667M323.333 187.667L323.667 188.333L323.333 187.667M277.333 188.667L277.667 189.333L277.333 188.667M350.333 188.667L350.667 189.333L350.333 188.667M395.333 188.667L395.667 189.333L395.333 188.667M322 189C318.44 195.857 312.462 200.211 305 202L305 203C311.31 202.051 323.032 196.751 322 189M469 189L470 190L469 189M278 190L279 191L278 190z"/>
<path style="fill:#b8b6ba; stroke:none;" d="M321 190L322 191L321 190z"/>
<path style="fill:#e1e3e9; stroke:none;" d="M351 190L353 193L351 190M394.333 190.667L394.667 191.333L394.333 190.667M425 190L426 191L425 190M468.333 190.667L468.667 191.333L468.333 190.667z"/>
<path style="fill:#b8b6ba; stroke:none;" d="M320.333 191.667L320.667 192.333L320.333 191.667z"/>
<path style="fill:#e1e3e9; stroke:none;" d="M426.333 191.667L426.667 192.333L426.333 191.667z"/>
<path style="fill:#b8b6ba; stroke:none;" d="M280 192L289 200L289 199L280 192z"/>
<path style="fill:#e1e3e9; stroke:none;" d="M393 192L394 193L393 192M467 192L468 193L467 192M280 193L281 194L280 193z"/>
<path style="fill:#b8b6ba; stroke:none;" d="M319 193L320 194L319 193z"/>
<path style="fill:#e1e3e9; stroke:none;" d="M353 193L354 194L353 193M392 193L391 195L393 195L392 193M427 193L428 194L427 193M466 193L467 194L466 193M281 194L282 195L281 194z"/>
<path style="fill:#b8b6ba; stroke:none;" d="M318 194L319 195L318 194z"/>
<path style="fill:#e1e3e9; stroke:none;" d="M354 194L355 195L354 194M428 194L429 195L428 194M465 194L466 195L465 194M282 195L283 196L282 195z"/>
<path style="fill:#b8b6ba; stroke:none;" d="M317 195L318 196L317 195z"/>
<path style="fill:#e1e3e9; stroke:none;" d="M355 195L356 196L355 195M390 195L391 196L390 195M429 195L430 196L429 195M464 195L462 198L464 195M283 196L284 197L283 196z"/>
<path style="fill:#b8b6ba; stroke:none;" d="M316 196L317 197L316 196z"/>
<path style="fill:#e1e3e9; stroke:none;" d="M356 196L357 197L356 196M389 196L390 197L389 196M430 196L431 197L430 196M206 197L207 198L206 197M284 197L285 198L284 197z"/>
<path style="fill:#b8b6ba; stroke:none;" d="M314.667 197.333L315.333 197.667L314.667 197.333z"/>
<path style="fill:#e1e3e9; stroke:none;" d="M357 197L358 198L357 197M388 197L389 198L388 197M431 197L432 198L431 197M285 198L286 199L285 198z"/>
<path style="fill:#b8b6ba; stroke:none;" d="M313 198L314 199L313 198z"/>
<path style="fill:#e1e3e9; stroke:none;" d="M358 198L359 199L358 198M387 198L388 199L387 198M432.667 198.333L433.333 198.667L432.667 198.333M461 198L462 199L461 198M287 199L288 200L287 199z"/>
<path style="fill:#b8b6ba; stroke:none;" d="M311.667 199.333L312.333 199.667L311.667 199.333z"/>
<path style="fill:#e1e3e9; stroke:none;" d="M359.667 199.333L360.333 199.667L359.667 199.333M385.667 199.333L386.333 199.667L385.667 199.333M434 199L435 200L434 199M459.667 199.333L460.333 199.667L459.667 199.333M288 200L288 201L295 203L295 202L288 200z"/>
<path style="fill:#b8b6ba; stroke:none;" d="M290 200L291 201L290 200M309.667 200.333L310.333 200.667L309.667 200.333z"/>
<path style="fill:#e1e3e9; stroke:none;" d="M361 200L361 201L366 202L366 201L361 200M380 201L380 202L385 201L380 201M435.667 200.333L436.333 200.667L435.667 200.333M440 202L440 203L459 201L440 202z"/>
<path style="fill:#b8b6ba; stroke:none;" d="M293.667 201.333L294.333 201.667L293.667 201.333M305 201L305 202L308 202L305 201z"/>
<path style="fill:#e1e3e9; stroke:none;" d="M437 201L437 202L440 202L437 201z"/>
<path style="fill:#b8b6ba; stroke:none;" d="M295 202L295 203L305 203L295 202z"/>
<path style="fill:#e1e3e9; stroke:none;" d="M366 202L366 203L380 203L366 202z"/>
<path style="fill:#e7e7ed; stroke:none;" d="M179 264.507C156.402 267.752 161.814 302.461 184 298.671C205.231 295.043 200.298 261.449 179 264.507z"/>
</svg>
